<svg version="1.1" id="Layer_1" xmlns="http://www.w3.org/2000/svg" xmlns:xlink="http://www.w3.org/1999/xlink" x="0px" y="0px"
	 width="100%" viewBox="0 0 496 496" enable-background="new 0 0 496 496" xml:space="preserve">
<path opacity="1.000000" stroke="none" 
	d="
M261.741333,322.756348 
	C256.333008,327.485840 251.069107,331.850281 246.078888,336.507935 
	C243.439056,338.971832 241.622696,339.182037 239.138779,336.264984 
	C232.661041,328.657593 226.063828,321.141174 219.243332,313.841614 
	C216.447174,310.849030 216.900970,309.068512 219.789413,306.557129 
	C236.004471,292.458710 252.095016,278.216919 268.211700,264.005524 
	C273.786713,259.089600 273.866699,258.976471 269.070618,253.502304 
	C254.800644,237.214706 240.512360,220.941742 226.053406,204.822525 
	C223.606186,202.094299 223.289581,200.493286 226.227356,198.002182 
	C233.977188,191.430679 241.569443,184.668259 249.087769,177.831558 
	C251.685852,175.469025 253.475281,175.116943 256.041290,178.055939 
	C279.486847,204.909409 302.997742,231.706696 326.667542,258.362396 
	C329.575897,261.637604 329.019684,263.360168 326.053680,265.960907 
	C304.638489,284.738861 283.337006,303.646515 261.741333,322.756348 
z"/>
<path opacity="1.000000" stroke="none" 
	d="
M122.569481,186.566193 
	C128.703491,181.161545 134.678421,176.104874 140.411301,170.787277 
	C143.096161,168.296890 144.801529,168.927368 146.968552,171.395126 
	C170.469498,198.157135 193.980820,224.910721 217.658081,251.516388 
	C220.722794,254.960144 220.106354,256.861877 216.904968,259.542084 
	C209.510757,265.732452 202.238266,272.085175 195.196075,278.671082 
	C192.215332,281.458710 190.353119,281.065765 187.866913,278.226776 
	C164.293106,251.307892 140.671875,224.430313 116.972389,197.622086 
	C114.645813,194.990311 114.716812,193.121384 117.388863,191.036682 
	C119.092537,189.707474 120.674614,188.222412 122.569481,186.566193 
z"/>
<path opacity="1.000000" stroke="none" 
	d="
M319.550110,133.467804 
	C324.599823,139.255249 329.344208,144.841278 334.268860,150.263519 
	C336.269958,152.466782 336.336029,154.009079 333.999268,156.037155 
	C326.074188,162.915375 318.243744,169.904770 310.471069,176.955231 
	C308.135986,179.073349 306.563812,179.129684 304.339691,176.595352 
	C280.606110,149.551727 256.785645,122.584099 232.908539,95.667038 
	C230.621887,93.089249 230.623749,91.244293 233.216278,89.001495 
	C240.774979,82.462524 248.347534,75.930939 255.679764,69.142738 
	C258.871002,66.188248 260.892426,66.932198 263.457184,69.856049 
	C282.021484,91.019730 300.685089,112.096329 319.550110,133.467804 
z"/>
<path opacity="1.000000" stroke="none" 
	d="
M200.471497,118.235146 
	C202.857361,117.533577 203.813095,119.075333 204.891434,120.294052 
	C211.732803,128.026031 218.510834,135.814545 225.404236,143.499664 
	C227.353546,145.672867 227.507599,147.281845 225.148926,149.319672 
	C217.338348,156.067886 209.589218,162.891571 201.967651,169.851807 
	C199.288101,172.298843 197.447968,172.361038 195.005951,169.485809 
	C188.540451,161.873352 181.892059,154.412369 175.175583,147.019073 
	C172.865952,144.476685 172.257080,142.551529 175.251038,140.017410 
	C183.637054,132.919418 191.856277,125.624374 200.471497,118.235146 
z"/>
<path opacity="1.000000" stroke="none" 
	d="
M333.956116,206.077835 
	C342.200073,198.765442 350.245209,191.772110 358.148376,184.621841 
	C360.595734,182.407608 362.412933,182.052933 364.754761,184.780975 
	C371.370789,192.488174 378.117188,200.085251 384.907990,207.639618 
	C387.109253,210.088379 387.297028,211.929184 384.600830,214.257263 
	C376.914093,220.894485 369.392822,227.724197 361.845581,234.521652 
	C359.292267,236.821304 357.436340,237.065353 354.916382,234.015366 
	C348.770325,226.576691 342.142822,219.537628 335.815613,212.245346 
	C334.418549,210.635193 331.865906,209.201187 333.956116,206.077835 
z"/>
</svg>